<svg xmlns="http://www.w3.org/2000/svg" xmlns:xlink="http://www.w3.org/1999/xlink" width="188" height="183" version="1.1" viewBox="0 0 188 183"><title>illo-lighting</title><desc>Created using Figma</desc><g id="Canvas" transform="translate(17080 -6735)"><clipPath id="clip-0" clip-rule="evenodd"><path fill="#FFF" d="M -17080 6735L -16892 6735L -16892 6918L -17080 6918L -17080 6735Z"/></clipPath><g id="illo-lighting" clip-path="url(#clip-0)"><path fill="#FFF" d="M -17080 6735L -16892 6735L -16892 6918L -17080 6918L -17080 6735Z"/><g id="Group 28"><g id="Group 14.1"><g id="Rectangle 15 Copy 2"><use fill="#FFF" transform="translate(-17080 6735)" xlink:href="#path0_fill"/><use fill="#FDB72B" transform="translate(-17080 6735)" xlink:href="#path0_fill"/></g></g></g><g id="Group 30" filter="url(#filter0_d)"><g id="Rectangle 45"><use fill="#FFEDCA" transform="translate(-17058 6781)" xlink:href="#path1_fill"/><use fill="url(#paint3_linear)" fill-opacity=".3" transform="translate(-17058 6781)" xlink:href="#path1_fill"/></g><g id="Rectangle 45.1"><use fill="#FFF" transform="translate(-17020 6781)" xlink:href="#path2_fill"/></g></g></g></g><defs><filter id="filter0_d" width="164" height="112" x="-17068" y="6774" color-interpolation-filters="sRGB" filterUnits="userSpaceOnUse"><feFlood flood-opacity="0" result="BackgroundImageFix"/><feColorMatrix in="SourceAlpha" type="matrix" values="0 0 0 0 0 0 0 0 0 0 0 0 0 0 0 0 0 0 255 0"/><feOffset dx="0" dy="3"/><feGaussianBlur stdDeviation="5"/><feColorMatrix type="matrix" values="0 0 0 0 0.43 0 0 0 0 0.315333 0 0 0 0 0.086 0 0 0 0.1 0"/><feBlend in2="BackgroundImageFix" mode="normal" result="effect1_dropShadow"/><feBlend in="SourceGraphic" in2="effect1_dropShadow" mode="normal" result="shape"/></filter><linearGradient id="paint3_linear" x1="0" x2="1" y1="0" y2="0" gradientTransform="matrix(19 46 -19 7.84783 9.5 -3.92391)" gradientUnits="userSpaceOnUse"><stop offset="0" stop-color="#FFF"/><stop offset="1" stop-color="#FFF" stop-opacity="0"/></linearGradient><path id="path0_fill" fill-rule="evenodd" d="M 0 0L 188 0L 188 183L 0 183L 0 0Z"/><path id="path1_fill" d="M 0 0L 38 0L 38 92L 0 92L 0 0Z"/><path id="path2_fill" d="M 0 0L 106 0L 106 92L 0 92L 0 0Z"/></defs></svg>