<svg xmlns="http://www.w3.org/2000/svg" xmlns:xlink="http://www.w3.org/1999/xlink" width="612" height="400" version="1.1" viewBox="0 0 612 400"><g id="Canvas" fill="none"><g id="thumbnail-hyperlinks-buttons" clip-path="url(#clip0)"><rect width="612" height="400" fill="#243A5E"/><g id="Rectangle"><rect width="482" height="281" fill="#fff" transform="translate(67 59)"/></g><g id="Rectangle 3.12"><rect width="80" height="16" fill="#C8C8C8" transform="translate(87 79)"/></g><g id="Rectangle 3.13"><rect width="442" height="16" fill="#C8C8C8" transform="translate(87 115)"/></g><g id="Rectangle 3.15"><rect width="442" height="16" fill="#C8C8C8" transform="translate(87 177)"/></g><g id="Rectangle 3.16"><rect width="442" height="16" fill="#C8C8C8" transform="translate(87 208)"/></g><g id="Rectangle 3.17"><rect width="279" height="16" fill="#C8C8C8" transform="translate(87 238)"/></g><g id="Background"><path fill="#50E6FF" fill-rule="evenodd" d="M 0 0L 116 0L 116 37L 0 37L 0 0Z" clip-rule="evenodd" transform="translate(413 282)"/></g><g id="Frame" clip-path="url(#clip1)"><rect width="57.143" height="8" fill="#F4F4F4" transform="translate(442 297)"/></g><g id="Group"><g id="Rectangle 3.14"><rect width="442" height="16" fill="#C8C8C8" transform="translate(87 146)"/></g><g id="Rectangle 3.19"><rect width="94" height="16" fill="#50E6FF" transform="translate(154 146)"/></g><g id="Line"><line x2="95" y1="-2" y2="-2" stroke="#50E6FF" stroke-width="4" transform="translate(154 171)"/></g></g></g></g><defs><clipPath id="clip0"><rect width="612" height="400" fill="#fff"/></clipPath><clipPath id="clip1"><rect width="57.143" height="8" fill="#fff" transform="translate(442 297)"/></clipPath></defs></svg>